<svg width="1474" height="579" viewBox="0 0 1474 579" fill="none" xmlns="http://www.w3.org/2000/svg">
<g clip-path="url(#clip0_2206_225)">
<rect width="1474" height="579" fill="white"/>
<path d="M898.046 569.574H601.613C592.962 569.574 586 565.204 586 559.775V122.799C586 117.37 592.962 113 601.613 113H898.046C906.696 113 913.659 117.37 913.659 122.799V559.775C913.659 565.204 906.696 569.574 898.046 569.574Z" fill="#CCE5FF" stroke="#007BFF" stroke-width="4" stroke-miterlimit="10" stroke-linecap="round" stroke-linejoin="round"/>
<rect x="586" y="193.572" width="327.659" height="12.5334" fill="#007BFF"/>
<rect x="586" y="286.676" width="327.659" height="12.5334" fill="#007BFF"/>
<rect x="586" y="379.783" width="327.659" height="12.5334" fill="#007BFF"/>
<rect x="586" y="472.887" width="327.659" height="12.5334" fill="#007BFF"/>
<rect x="614.656" y="139.857" width="148.61" height="25.0668" fill="#007BFF"/>
<circle cx="800.877" cy="152.391" r="12.5334" fill="#007BFF"/>
<circle cx="836.682" cy="152.391" r="12.5334" fill="#007BFF"/>
<circle cx="872.502" cy="152.391" r="12.5334" fill="#007BFF"/>
<rect x="614.656" y="232.961" width="148.61" height="25.0668" fill="#007BFF"/>
<circle cx="800.877" cy="245.494" r="12.5334" fill="#007BFF"/>
<circle cx="836.682" cy="245.494" r="12.5334" fill="#007BFF"/>
<circle cx="872.502" cy="245.494" r="12.5334" fill="#007BFF"/>
<rect x="614.656" y="326.066" width="148.61" height="25.0668" fill="#007BFF"/>
<circle cx="800.877" cy="338.6" r="12.5334" fill="#007BFF"/>
<circle cx="836.682" cy="338.6" r="12.5334" fill="#007BFF"/>
<circle cx="872.502" cy="338.6" r="12.5334" fill="#007BFF"/>
<rect x="614.656" y="419.17" width="148.61" height="25.0668" fill="#007BFF"/>
<circle cx="800.877" cy="431.703" r="12.5334" fill="#007BFF"/>
<circle cx="836.682" cy="431.703" r="12.5334" fill="#007BFF"/>
<circle cx="872.502" cy="431.703" r="12.5334" fill="#007BFF"/>
<rect x="614.656" y="512.281" width="148.61" height="25.0668" fill="#007BFF"/>
<circle cx="800.877" cy="524.815" r="12.5334" fill="#007BFF"/>
<circle cx="836.682" cy="524.815" r="12.5334" fill="#007BFF"/>
<circle cx="872.502" cy="524.815" r="12.5334" fill="#007BFF"/>
<mask id="path-26-inside-1_2206_225" fill="white">
<path fill-rule="evenodd" clip-rule="evenodd" d="M1463.91 392.014H1148V503.85V507.309H1148.22C1152.54 541.997 1221.51 569.569 1305.96 569.569C1390.4 569.569 1459.37 541.997 1463.7 507.309H1463.91V503.85V392.014Z"/>
</mask>
<path fill-rule="evenodd" clip-rule="evenodd" d="M1463.91 392.014H1148V503.85V507.309H1148.22C1152.54 541.997 1221.51 569.569 1305.96 569.569C1390.4 569.569 1459.37 541.997 1463.7 507.309H1463.91V503.85V392.014Z" fill="#CCE5FF"/>
<path d="M1148 392.014V388.014H1144V392.014H1148ZM1463.91 392.014H1467.91V388.014H1463.91V392.014ZM1148 507.309H1144V511.309H1148V507.309ZM1148.22 507.309L1152.18 506.815L1151.75 503.309H1148.22V507.309ZM1463.7 507.309V503.309H1460.16L1459.73 506.815L1463.7 507.309ZM1463.91 507.309V511.309H1467.91V507.309H1463.91ZM1148 396.014H1463.91V388.014H1148V396.014ZM1152 503.85V392.014H1144V503.85H1152ZM1152 507.309V503.85H1144V507.309H1152ZM1148.22 503.309H1148V511.309H1148.22V503.309ZM1305.96 565.569C1264.12 565.569 1226.28 558.733 1198.51 547.728C1184.62 542.224 1173.41 535.739 1165.47 528.682C1157.52 521.618 1153.11 514.211 1152.18 506.815L1144.25 507.804C1145.49 517.751 1151.31 526.798 1160.15 534.66C1169 542.529 1181.12 549.441 1195.57 555.166C1224.47 566.619 1263.34 573.569 1305.96 573.569V565.569ZM1459.73 506.815C1458.8 514.211 1454.39 521.618 1446.44 528.682C1438.5 535.739 1427.29 542.224 1413.4 547.728C1385.63 558.733 1347.79 565.569 1305.96 565.569V573.569C1348.57 573.569 1387.44 566.619 1416.35 555.166C1430.79 549.441 1442.91 542.529 1451.76 534.66C1460.6 526.798 1466.42 517.751 1467.66 507.804L1459.73 506.815ZM1463.91 503.309H1463.7V511.309H1463.91V503.309ZM1459.91 503.85V507.309H1467.91V503.85H1459.91ZM1459.91 392.014V503.85H1467.91V392.014H1459.91Z" fill="#007BFF" mask="url(#path-26-inside-1_2206_225)"/>
<path d="M1461.91 393.17C1461.91 401.546 1457.84 409.707 1450.09 417.325C1442.34 424.949 1431.03 431.907 1416.88 437.793C1388.59 449.562 1349.38 456.888 1305.96 456.888C1262.53 456.888 1223.32 449.562 1195.03 437.793C1180.88 431.907 1169.57 424.949 1161.82 417.325C1154.07 409.707 1150 401.546 1150 393.17C1150 384.794 1154.07 376.632 1161.82 369.015C1169.57 361.391 1180.88 354.432 1195.03 348.546C1223.32 336.777 1262.53 329.451 1305.96 329.451C1349.38 329.451 1388.59 336.777 1416.88 348.546C1431.03 354.432 1442.34 361.391 1450.09 369.015C1457.84 376.632 1461.91 384.794 1461.91 393.17Z" fill="#CCE5FF" stroke="#007BFF" stroke-width="4"/>
<mask id="path-29-inside-2_2206_225" fill="white">
<path fill-rule="evenodd" clip-rule="evenodd" d="M1464 244H1148V416.231V417H1148.01C1149 452.941 1219.34 481.949 1305.96 481.949C1392.57 481.949 1462.91 452.941 1463.9 417H1464V244Z"/>
</mask>
<path fill-rule="evenodd" clip-rule="evenodd" d="M1464 244H1148V416.231V417H1148.01C1149 452.941 1219.34 481.949 1305.96 481.949C1392.57 481.949 1462.91 452.941 1463.9 417H1464V244Z" fill="#CCE5FF"/>
<path d="M1148 244V240H1144V244H1148ZM1464 244H1468V240H1464V244ZM1148 417H1144V421H1148V417ZM1148.01 417L1152.01 416.89L1151.9 413H1148.01V417ZM1463.9 417V413H1460.01L1459.9 416.89L1463.9 417ZM1464 417V421H1468V417H1464ZM1148 248H1464V240H1148V248ZM1152 416.231V244H1144V416.231H1152ZM1152 417V416.231H1144V417H1152ZM1148.01 413H1148V421H1148.01V413ZM1305.96 477.949C1263.04 477.949 1224.34 470.756 1196.39 459.253C1182.41 453.499 1171.31 446.741 1163.7 439.427C1156.1 432.121 1152.22 424.502 1152.01 416.89L1144.01 417.11C1144.3 427.468 1149.58 436.953 1158.15 445.195C1166.72 453.428 1178.8 460.661 1193.35 466.651C1222.47 478.638 1262.25 485.949 1305.96 485.949V477.949ZM1459.9 416.89C1459.69 424.502 1455.81 432.121 1448.21 439.427C1440.6 446.741 1429.5 453.499 1415.52 459.253C1387.57 470.756 1348.87 477.949 1305.96 477.949V485.949C1349.66 485.949 1389.44 478.638 1418.56 466.651C1433.11 460.661 1445.19 453.428 1453.76 445.195C1462.33 436.953 1467.61 427.468 1467.9 417.11L1459.9 416.89ZM1464 413H1463.9V421H1464V413ZM1460 244V417H1468V244H1460Z" fill="#007BFF" mask="url(#path-29-inside-2_2206_225)"/>
<path d="M1461.91 243.285C1461.91 251.661 1457.84 259.822 1450.09 267.44C1442.34 275.064 1431.03 282.022 1416.88 287.908C1388.59 299.677 1349.38 307.003 1305.96 307.003C1262.53 307.003 1223.32 299.677 1195.03 287.908C1180.88 282.022 1169.57 275.064 1161.82 267.44C1154.07 259.822 1150 251.661 1150 243.285C1150 234.909 1154.07 226.748 1161.82 219.13C1169.57 211.506 1180.88 204.548 1195.03 198.661C1223.32 186.893 1262.53 179.566 1305.96 179.566C1349.38 179.566 1388.59 186.893 1416.88 198.661C1431.03 204.548 1442.34 211.506 1450.09 219.13C1457.84 226.748 1461.91 234.909 1461.91 243.285Z" fill="#CCE5FF" stroke="#007BFF" stroke-width="4"/>
<mask id="path-32-inside-3_2206_225" fill="white">
<path fill-rule="evenodd" clip-rule="evenodd" d="M1463.91 177.562H1148V266.34V267.493H1148.02C1149.5 303.257 1219.64 332.059 1305.96 332.059C1392.27 332.059 1462.41 303.257 1463.89 267.493H1463.91V266.34V177.562Z"/>
</mask>
<path fill-rule="evenodd" clip-rule="evenodd" d="M1463.91 177.562H1148V266.34V267.493H1148.02C1149.5 303.257 1219.64 332.059 1305.96 332.059C1392.27 332.059 1462.41 303.257 1463.89 267.493H1463.91V266.34V177.562Z" fill="#CCE5FF"/>
<path d="M1148 177.562V173.562H1144V177.562H1148ZM1463.91 177.562H1467.91V173.562H1463.91V177.562ZM1148 267.493H1144V271.493H1148V267.493ZM1148.02 267.493L1152.02 267.328L1151.86 263.493H1148.02V267.493ZM1463.89 267.493V263.493H1460.05L1459.89 267.328L1463.89 267.493ZM1463.91 267.493V271.493H1467.91V267.493H1463.91ZM1148 181.562H1463.91V173.562H1148V181.562ZM1152 266.34V177.562H1144V266.34H1152ZM1152 267.493V266.34H1144V267.493H1152ZM1148.02 263.493H1148V271.493H1148.02V263.493ZM1305.96 328.059C1263.19 328.059 1224.62 320.916 1196.69 309.485C1182.72 303.767 1171.6 297.048 1163.94 289.77C1156.29 282.498 1152.33 274.908 1152.02 267.328L1144.03 267.658C1144.45 277.96 1149.82 287.382 1158.43 295.568C1167.04 303.75 1179.12 310.937 1193.66 316.889C1222.76 328.8 1262.41 336.059 1305.96 336.059V328.059ZM1459.89 267.328C1459.58 274.908 1455.62 282.498 1447.97 289.77C1440.31 297.048 1429.19 303.767 1415.22 309.485C1387.29 320.916 1348.72 328.059 1305.96 328.059V336.059C1349.5 336.059 1389.15 328.8 1418.25 316.889C1432.79 310.937 1444.87 303.75 1453.48 295.568C1462.09 287.382 1467.46 277.96 1467.88 267.658L1459.89 267.328ZM1463.91 263.493H1463.89V271.493H1463.91V263.493ZM1459.91 266.34V267.493H1467.91V266.34H1459.91ZM1459.91 177.562V266.34H1467.91V177.562H1459.91Z" fill="#007BFF" mask="url(#path-32-inside-3_2206_225)"/>
<path d="M1461.91 178.719C1461.91 187.095 1457.84 195.256 1450.09 202.873C1442.34 210.498 1431.03 217.456 1416.88 223.342C1388.59 235.111 1349.38 242.437 1305.96 242.437C1262.53 242.437 1223.32 235.111 1195.03 223.342C1180.88 217.456 1169.57 210.498 1161.82 202.873C1154.07 195.256 1150 187.095 1150 178.719C1150 170.342 1154.07 162.181 1161.82 154.564C1169.57 146.939 1180.88 139.981 1195.03 134.095C1223.32 122.326 1262.53 115 1305.96 115C1349.38 115 1388.59 122.326 1416.88 134.095C1431.03 139.981 1442.34 146.939 1450.09 154.564C1457.84 162.181 1461.91 170.342 1461.91 178.719Z" fill="#CCE5FF" stroke="#007BFF" stroke-width="4"/>
<path d="M128 556.155C128 563.616 120.985 569.678 112.75 569.678L21.2487 569.678C12.7085 569.678 5.99846 563.616 5.99846 556.155L5.99847 412.524C5.99847 405.062 13.0136 399 21.2487 399L112.75 399C121.29 399 128 405.062 128 412.524L128 556.155Z" fill="#274867"/>
<path d="M21.2486 569.675L112.75 569.675C121.29 569.675 128 563.612 128 556.151L128 464.283L16.9786 569.442C18.5036 569.442 19.7236 569.675 21.2486 569.675Z" fill="url(#paint0_linear_2206_225)"/>
<path d="M118.055 561.094L118.055 408.211L15.6413 408.211L15.6413 561.094L118.055 561.094Z" fill="#D5EDFF"/>
<path d="M334.805 558.358C334.805 564.822 330.158 570.075 324.704 570.075H264.101C258.444 570.075 254 564.822 254 558.358V433.717C254 427.252 258.646 422 264.101 422H324.704C330.36 422 334.805 427.252 334.805 433.717V558.358Z" fill="#274867"/>
<path d="M328.143 437.352H260.469V554.922H328.143V437.352Z" fill="#D5EDFF"/>
<path d="M306.527 427.656C306.527 428.666 305.719 429.474 304.911 429.474H286.124C285.316 429.474 284.508 428.666 284.508 427.656C284.508 426.646 285.316 425.838 286.124 425.838H304.911C305.719 425.838 306.527 426.646 306.527 427.656Z" fill="#274867"/>
<path d="M304.901 430.079H286.114C284.902 430.079 284.094 429.069 284.094 427.655C284.094 426.443 285.104 425.23 286.114 425.23H304.901C306.113 425.23 306.921 426.241 306.921 427.655C306.921 429.069 305.911 430.079 304.901 430.079ZM285.912 426.443C285.306 426.443 284.902 427.049 284.902 427.857C284.902 428.665 285.306 429.271 285.912 429.271H304.699C305.305 429.271 305.709 428.665 305.709 427.857C305.709 427.049 305.305 426.443 304.699 426.443H285.912Z" fill="#D5EDFF"/>
<rect x="6" y="112.936" width="329" height="225.398" rx="8" fill="#007BFF"/>
<path d="M146.446 339.901C147.323 336.322 150.531 333.805 154.216 333.805H185.939C189.51 333.805 192.649 336.172 193.631 339.606L200.18 362.52C201.64 367.631 197.803 372.719 192.488 372.719H148.603C143.414 372.719 139.598 367.855 140.832 362.815L146.446 339.901Z" fill="#007BFF"/>
<rect x="24.1953" y="132.646" width="292.613" height="167.785" rx="8" fill="#CCE5FF"/>
<rect x="121.734" y="365.625" width="98.043" height="12.6344" rx="6.3172" fill="#007BFF"/>
<path d="M14.6791 13.44V42H18.2791V30.56H26.7591C32.9991 30.56 36.4391 27.36 36.4391 21.96C36.4391 16.64 32.9991 13.44 26.7591 13.44H14.6791ZM18.2791 27.36V16.64H26.1591C31.0391 16.64 32.7991 18.68 32.7991 22C32.7991 25.32 31.0391 27.36 26.1591 27.36H18.2791ZM52.9875 21.84H51.4675C48.5475 21.84 46.6275 23 45.6275 24.24H44.7475V21.84H41.4675V42H44.8675V31.92C44.8675 27.48 47.3075 25.04 51.3075 25.04H52.9875V21.84ZM74.9241 30.72C74.8041 25.76 71.9241 21.32 65.9241 21.32C59.8041 21.32 56.2041 25.52 56.2041 31.72C56.2041 37.92 59.7241 42.52 66.0041 42.52C71.0041 42.52 73.9241 39.88 74.5641 36.44H71.1241C70.5241 38.36 68.8441 39.56 66.0041 39.56C61.8441 39.56 59.6841 36.68 59.5641 31.88H74.9241V30.72ZM65.8441 24.28C69.2441 24.28 71.2041 26.48 71.4041 29.04H59.7641C60.2041 26.48 62.2041 24.28 65.8441 24.28ZM85.8175 29.44C83.7775 29.12 82.7775 28.52 82.7775 26.96C82.7775 25.24 84.5375 24.28 87.1375 24.28C89.6575 24.28 91.5775 25.16 91.8575 27.08H95.2575C94.8175 23.56 92.0575 21.32 87.2975 21.32C81.8575 21.32 79.3375 23.92 79.3375 27.28C79.3375 30.32 81.2975 31.84 84.1775 32.36L88.6975 33.12C91.2575 33.56 92.3775 34.52 92.3775 36.28C92.3775 38.48 90.3775 39.56 87.3375 39.56C84.2975 39.56 82.2975 38.44 81.9775 36.16H78.5375C78.9775 40 81.7775 42.52 87.4975 42.52C92.9375 42.52 95.7775 39.52 95.7775 36.2C95.7775 32.52 93.5375 30.72 90.0175 30.12L87.7375 29.76L85.8175 29.44ZM118.244 30.72C118.124 25.76 115.244 21.32 109.244 21.32C103.124 21.32 99.5244 25.52 99.5244 31.72C99.5244 37.92 103.044 42.52 109.324 42.52C114.324 42.52 117.244 39.88 117.884 36.44H114.444C113.844 38.36 112.164 39.56 109.324 39.56C105.164 39.56 103.004 36.68 102.884 31.88H118.244V30.72ZM109.164 24.28C112.564 24.28 114.524 26.48 114.724 29.04H103.084C103.524 26.48 105.524 24.28 109.164 24.28ZM141.458 42V29.2C141.458 24.36 138.738 21.32 133.778 21.32C131.058 21.32 128.818 22.44 127.698 24H126.818V21.84H123.538V42H126.938V31.08C126.938 27.52 129.338 24.36 132.938 24.36C136.338 24.36 138.058 26.2 138.058 29.92V42H141.458ZM152.358 21.84V15.76H148.958V21.84H145.478V24.8H148.958V36.36C148.958 40.64 151.518 42 155.878 42H157.438V38.96H155.958C153.238 38.96 152.358 37.92 152.358 35.88V24.8H157.438V21.84H152.358ZM175.87 42H179.07V28.28C179.07 23.76 175.83 21.32 170.75 21.32C166.23 21.32 163.03 23.48 162.75 27.2H166.15C166.31 25.44 167.83 24.28 170.83 24.28C174.35 24.28 175.75 26.04 175.75 28.48V29.28H169.19C163.59 29.28 161.47 32.72 161.47 35.96C161.47 39.4 164.07 42.52 168.71 42.52C171.59 42.52 173.75 41.44 174.99 39.88H175.87V42ZM169.55 39.56C166.55 39.56 164.87 38.12 164.87 35.84C164.87 33.44 166.39 32 169.71 32H175.75V33.84C175.75 37.04 172.91 39.56 169.55 39.56ZM189.976 21.84V15.76H186.576V21.84H183.096V24.8H186.576V36.36C186.576 40.64 189.136 42 193.496 42H195.056V38.96H193.576C190.856 38.96 189.976 37.92 189.976 35.88V24.8H195.056V21.84H189.976ZM204.247 16.6V12.92H200.647V16.6H204.247ZM204.127 21.84H200.727V42H204.127V21.84ZM219.483 21.32C213.163 21.32 209.563 25.96 209.563 31.92C209.563 37.88 213.163 42.52 219.483 42.52C225.763 42.52 229.403 37.88 229.403 31.92C229.403 25.96 225.763 21.32 219.483 21.32ZM219.483 39.56C215.003 39.56 212.963 35.88 212.963 31.92C212.963 27.96 215.003 24.28 219.483 24.28C223.923 24.28 226.003 27.96 226.003 31.92C226.003 35.88 223.923 39.56 219.483 39.56ZM252.63 42V29.2C252.63 24.36 249.91 21.32 244.95 21.32C242.23 21.32 239.99 22.44 238.87 24H237.99V21.84H234.71V42H238.11V31.08C238.11 27.52 240.51 24.36 244.11 24.36C247.51 24.36 249.23 26.2 249.23 29.92V42H252.63ZM274.663 21.84V15.76H271.263V21.84H267.783V24.8H271.263V36.36C271.263 40.64 273.823 42 278.183 42H279.743V38.96H278.263C275.543 38.96 274.663 37.92 274.663 35.88V24.8H279.743V21.84H274.663ZM288.935 16.6V12.92H285.335V16.6H288.935ZM288.815 21.84H285.415V42H288.815V21.84ZM312.971 30.72C312.851 25.76 309.971 21.32 303.971 21.32C297.851 21.32 294.251 25.52 294.251 31.72C294.251 37.92 297.771 42.52 304.051 42.52C309.051 42.52 311.971 39.88 312.611 36.44H309.171C308.571 38.36 306.891 39.56 304.051 39.56C299.891 39.56 297.731 36.68 297.611 31.88H312.971V30.72ZM303.891 24.28C307.291 24.28 309.251 26.48 309.451 29.04H297.811C298.251 26.48 300.251 24.28 303.891 24.28ZM329.784 21.84H328.264C325.344 21.84 323.424 23 322.424 24.24H321.544V21.84H318.264V42H321.664V31.92C321.664 27.48 324.104 25.04 328.104 25.04H329.784V21.84ZM109.011 73.52C109.011 65.6 111.971 60 115.171 55.64H111.891C108.611 59.8 105.811 65.64 105.811 73.52C105.811 81.48 108.691 87.52 112.171 91.64H115.451C112.171 87.28 109.011 81.56 109.011 73.52ZM138.178 77.88C137.258 81.2 134.658 83.24 130.658 83.24C124.018 83.24 121.098 77.8 121.098 71.72C121.098 65.68 124.058 60.2 130.698 60.2C134.658 60.2 136.778 61.88 137.858 64.92H141.658C140.498 60 136.498 56.92 130.698 56.92C122.218 56.92 117.458 63.24 117.458 71.72C117.458 80.2 122.138 86.52 130.658 86.52C136.938 86.52 140.818 82.96 141.978 77.88H138.178ZM147.249 56.92V86H150.649V56.92H147.249ZM160.81 60.6V56.92H157.21V60.6H160.81ZM160.69 65.84H157.29V86H160.69V65.84ZM184.846 74.72C184.726 69.76 181.846 65.32 175.846 65.32C169.726 65.32 166.126 69.52 166.126 75.72C166.126 81.92 169.646 86.52 175.926 86.52C180.926 86.52 183.846 83.88 184.486 80.44H181.046C180.446 82.36 178.766 83.56 175.926 83.56C171.766 83.56 169.606 80.68 169.486 75.88H184.846V74.72ZM175.766 68.28C179.166 68.28 181.126 70.48 181.326 73.04H169.686C170.126 70.48 172.126 68.28 175.766 68.28ZM208.059 86V73.2C208.059 68.36 205.339 65.32 200.379 65.32C197.659 65.32 195.419 66.44 194.299 68H193.419V65.84H190.139V86H193.539V75.08C193.539 71.52 195.939 68.36 199.539 68.36C202.939 68.36 204.659 70.2 204.659 73.92V86H208.059ZM218.96 65.84V59.76H215.56V65.84H212.08V68.8H215.56V80.36C215.56 84.64 218.12 86 222.48 86H224.04V82.96H222.56C219.84 82.96 218.96 81.92 218.96 79.88V68.8H224.04V65.84H218.96ZM232.992 73.52C232.992 81.56 229.832 87.28 226.552 91.64H229.832C233.312 87.52 236.192 81.48 236.192 73.52C236.192 65.64 233.392 59.8 230.112 55.64H226.832C230.032 60 232.992 65.6 232.992 73.52Z" fill="#274867"/>
<path d="M628.361 42H632.121L622.201 13.44H616.121L606.241 42H609.921L612.881 33.24H625.401L628.361 42ZM618.321 17.12H619.921L624.281 29.96H613.961L618.321 17.12ZM645.862 24.28C649.902 24.28 652.062 27.44 652.062 31.92C652.062 36.4 649.902 39.56 645.862 39.56C641.382 39.56 639.542 35.88 639.542 31.92C639.542 27.96 641.382 24.28 645.862 24.28ZM636.182 21.84V50H639.582V39.84H640.462C641.542 41.28 643.422 42.52 646.622 42.52C652.182 42.52 655.462 38 655.462 31.92C655.462 25.96 652.182 21.32 646.622 21.32C643.422 21.32 641.462 22.6 640.342 24H639.462V21.84H636.182ZM670.472 24.28C674.512 24.28 676.672 27.44 676.672 31.92C676.672 36.4 674.512 39.56 670.472 39.56C665.992 39.56 664.152 35.88 664.152 31.92C664.152 27.96 665.992 24.28 670.472 24.28ZM660.792 21.84V50H664.192V39.84H665.072C666.152 41.28 668.032 42.52 671.232 42.52C676.792 42.52 680.072 38 680.072 31.92C680.072 25.96 676.792 21.32 671.232 21.32C668.032 21.32 666.072 22.6 664.952 24H664.072V21.84H660.792ZM685.401 12.92V42H688.801V12.92H685.401ZM698.962 16.6V12.92H695.362V16.6H698.962ZM698.842 21.84H695.442V42H698.842V21.84ZM719.158 35.92C718.638 38.16 716.958 39.56 714.078 39.56C709.558 39.56 707.678 35.88 707.678 31.84C707.678 27.84 709.518 24.28 714.078 24.28C716.838 24.28 718.398 25.64 719.038 27.68H722.438C721.758 23.96 718.878 21.32 714.078 21.32C707.798 21.32 704.278 25.84 704.278 31.92C704.278 37.88 707.798 42.52 714.078 42.52C718.758 42.52 721.798 39.88 722.558 35.92H719.158ZM740.468 42H743.668V28.28C743.668 23.76 740.428 21.32 735.348 21.32C730.828 21.32 727.628 23.48 727.348 27.2H730.748C730.908 25.44 732.428 24.28 735.428 24.28C738.948 24.28 740.348 26.04 740.348 28.48V29.28H733.788C728.188 29.28 726.068 32.72 726.068 35.96C726.068 39.4 728.668 42.52 733.308 42.52C736.188 42.52 738.348 41.44 739.588 39.88H740.468V42ZM734.148 39.56C731.148 39.56 729.468 38.12 729.468 35.84C729.468 33.44 730.988 32 734.308 32H740.348V33.84C740.348 37.04 737.508 39.56 734.148 39.56ZM754.573 21.84V15.76H751.173V21.84H747.693V24.8H751.173V36.36C751.173 40.64 753.733 42 758.093 42H759.653V38.96H758.173C755.453 38.96 754.573 37.92 754.573 35.88V24.8H759.653V21.84H754.573ZM768.845 16.6V12.92H765.245V16.6H768.845ZM768.725 21.84H765.325V42H768.725V21.84ZM784.081 21.32C777.761 21.32 774.161 25.96 774.161 31.92C774.161 37.88 777.761 42.52 784.081 42.52C790.361 42.52 794.001 37.88 794.001 31.92C794.001 25.96 790.361 21.32 784.081 21.32ZM784.081 39.56C779.601 39.56 777.561 35.88 777.561 31.92C777.561 27.96 779.601 24.28 784.081 24.28C788.521 24.28 790.601 27.96 790.601 31.92C790.601 35.88 788.521 39.56 784.081 39.56ZM817.227 42V29.2C817.227 24.36 814.507 21.32 809.547 21.32C806.827 21.32 804.587 22.44 803.467 24H802.587V21.84H799.307V42H802.707V31.08C802.707 27.52 805.107 24.36 808.707 24.36C812.107 24.36 813.827 26.2 813.827 29.92V42H817.227ZM839.261 21.84V15.76H835.861V21.84H832.381V24.8H835.861V36.36C835.861 40.64 838.421 42 842.781 42H844.341V38.96H842.861C840.141 38.96 839.261 37.92 839.261 35.88V24.8H844.341V21.84H839.261ZM853.532 16.6V12.92H849.932V16.6H853.532ZM853.412 21.84H850.012V42H853.412V21.84ZM877.569 30.72C877.449 25.76 874.569 21.32 868.569 21.32C862.449 21.32 858.849 25.52 858.849 31.72C858.849 37.92 862.369 42.52 868.649 42.52C873.649 42.52 876.569 39.88 877.209 36.44H873.769C873.169 38.36 871.489 39.56 868.649 39.56C864.489 39.56 862.329 36.68 862.209 31.88H877.569V30.72ZM868.489 24.28C871.889 24.28 873.849 26.48 874.049 29.04H862.409C862.849 26.48 864.849 24.28 868.489 24.28ZM894.382 21.84H892.862C889.942 21.84 888.022 23 887.022 24.24H886.142V21.84H882.862V42H886.262V31.92C886.262 27.48 888.702 25.04 892.702 25.04H894.382V21.84ZM680.444 73.52C680.444 65.6 683.404 60 686.604 55.64H683.324C680.044 59.8 677.244 65.64 677.244 73.52C677.244 81.48 680.124 87.52 683.604 91.64H686.884C683.604 87.28 680.444 81.56 680.444 73.52ZM698.722 68.92C696.322 68.4 693.882 67.52 693.882 64.76C693.882 61.76 696.762 60.2 700.202 60.2C704.362 60.2 706.322 61.76 707.002 64.64H710.642C710.002 60.04 706.202 56.92 700.282 56.92C693.842 56.92 690.242 60.4 690.242 64.84C690.242 69 693.002 71.24 697.162 72.08C698.562 72.4 701.362 72.92 702.802 73.24C705.602 73.88 707.642 75.04 707.642 78.12C707.642 81.4 704.602 83.24 700.642 83.24C696.722 83.24 693.282 81.92 692.642 78.04H689.002C689.442 83 693.802 86.52 700.482 86.52C707.722 86.52 711.282 82.52 711.282 78.04C711.282 73.16 708.402 70.96 704.122 70C702.642 69.68 699.962 69.12 698.722 68.92ZM734.405 74.72C734.285 69.76 731.405 65.32 725.405 65.32C719.285 65.32 715.685 69.52 715.685 75.72C715.685 81.92 719.205 86.52 725.485 86.52C730.485 86.52 733.405 83.88 734.045 80.44H730.605C730.005 82.36 728.325 83.56 725.485 83.56C721.325 83.56 719.165 80.68 719.045 75.88H734.405V74.72ZM725.325 68.28C728.725 68.28 730.685 70.48 730.885 73.04H719.245C719.685 70.48 721.685 68.28 725.325 68.28ZM751.218 65.84H749.698C746.778 65.84 744.858 67 743.858 68.24H742.978V65.84H739.698V86H743.098V75.92C743.098 71.48 745.538 69.04 749.538 69.04H751.218V65.84ZM761.478 86H767.838L774.598 65.84H771.038L765.598 82.8H763.958L758.318 65.84H754.798L761.478 86ZM795.928 74.72C795.808 69.76 792.928 65.32 786.928 65.32C780.808 65.32 777.208 69.52 777.208 75.72C777.208 81.92 780.728 86.52 787.008 86.52C792.008 86.52 794.928 83.88 795.568 80.44H792.128C791.528 82.36 789.848 83.56 787.008 83.56C782.848 83.56 780.688 80.68 780.568 75.88H795.928V74.72ZM786.848 68.28C790.248 68.28 792.208 70.48 792.408 73.04H780.768C781.208 70.48 783.208 68.28 786.848 68.28ZM812.741 65.84H811.221C808.301 65.84 806.381 67 805.381 68.24H804.501V65.84H801.221V86H804.621V75.92C804.621 71.48 807.061 69.04 811.061 69.04H812.741V65.84ZM820.558 73.52C820.558 81.56 817.398 87.28 814.118 91.64H817.398C820.878 87.52 823.758 81.48 823.758 73.52C823.758 65.64 820.958 59.8 817.678 55.64H814.398C817.598 60 820.558 65.6 820.558 73.52Z" fill="#274867"/>
<path d="M1206.62 341.9V449H1251.32C1284.17 449 1300.97 427.55 1300.97 395.45C1300.97 363.2 1284.17 341.9 1251.32 341.9H1206.62ZM1228.97 429.05V361.85H1248.47C1270.07 361.85 1278.02 376.85 1278.02 395.45C1278.02 414.05 1270.07 429.05 1248.47 429.05H1228.97ZM1395.28 391.4C1402.03 387.8 1406.23 379.85 1406.23 370.25C1406.23 354.95 1394.53 341.9 1370.98 341.9H1320.73V449H1372.33C1397.68 449 1409.23 435.8 1409.23 417.95C1409.23 407.3 1402.93 398.75 1395.28 395.3V391.4ZM1343.08 384.35V360.5H1368.13C1378.18 360.5 1383.28 364.4 1383.28 372.35C1383.28 380.3 1378.33 384.35 1368.28 384.35H1343.08ZM1343.08 429.95V403.1H1369.33C1380.58 403.1 1386.28 407.6 1386.28 416.75C1386.28 425.75 1380.28 429.95 1369.03 429.95H1343.08Z" fill="#007BFF"/>
<path d="M1226.64 13.44V42H1237.32C1246.08 42 1250.52 36.28 1250.52 27.72C1250.52 19.12 1246.08 13.44 1237.32 13.44H1226.64ZM1230.24 38.72V16.72H1237.32C1244.24 16.72 1246.88 21.76 1246.88 27.72C1246.88 33.68 1244.24 38.72 1237.32 38.72H1230.24ZM1268.85 42H1272.05V28.28C1272.05 23.76 1268.81 21.32 1263.73 21.32C1259.21 21.32 1256.01 23.48 1255.73 27.2H1259.13C1259.29 25.44 1260.81 24.28 1263.81 24.28C1267.33 24.28 1268.73 26.04 1268.73 28.48V29.28H1262.17C1256.57 29.28 1254.45 32.72 1254.45 35.96C1254.45 39.4 1257.05 42.52 1261.69 42.52C1264.57 42.52 1266.73 41.44 1267.97 39.88H1268.85V42ZM1262.53 39.56C1259.53 39.56 1257.85 38.12 1257.85 35.84C1257.85 33.44 1259.37 32 1262.69 32H1268.73V33.84C1268.73 37.04 1265.89 39.56 1262.53 39.56ZM1282.95 21.84V15.76H1279.55V21.84H1276.07V24.8H1279.55V36.36C1279.55 40.64 1282.11 42 1286.47 42H1288.03V38.96H1286.55C1283.83 38.96 1282.95 37.92 1282.95 35.88V24.8H1288.03V21.84H1282.95ZM1306.46 42H1309.66V28.28C1309.66 23.76 1306.42 21.32 1301.34 21.32C1296.82 21.32 1293.62 23.48 1293.34 27.2H1296.74C1296.9 25.44 1298.42 24.28 1301.42 24.28C1304.94 24.28 1306.34 26.04 1306.34 28.48V29.28H1299.78C1294.18 29.28 1292.06 32.72 1292.06 35.96C1292.06 39.4 1294.66 42.52 1299.3 42.52C1302.18 42.52 1304.34 41.44 1305.58 39.88H1306.46V42ZM1300.14 39.56C1297.14 39.56 1295.46 38.12 1295.46 35.84C1295.46 33.44 1296.98 32 1300.3 32H1306.34V33.84C1306.34 37.04 1303.5 39.56 1300.14 39.56ZM1331.7 21.84V15.76H1328.3V21.84H1324.82V24.8H1328.3V36.36C1328.3 40.64 1330.86 42 1335.22 42H1336.78V38.96H1335.3C1332.58 38.96 1331.7 37.92 1331.7 35.88V24.8H1336.78V21.84H1331.7ZM1345.97 16.6V12.92H1342.37V16.6H1345.97ZM1345.85 21.84H1342.45V42H1345.85V21.84ZM1370.01 30.72C1369.89 25.76 1367.01 21.32 1361.01 21.32C1354.89 21.32 1351.29 25.52 1351.29 31.72C1351.29 37.92 1354.81 42.52 1361.09 42.52C1366.09 42.52 1369.01 39.88 1369.65 36.44H1366.21C1365.61 38.36 1363.93 39.56 1361.09 39.56C1356.93 39.56 1354.77 36.68 1354.65 31.88H1370.01V30.72ZM1360.93 24.28C1364.33 24.28 1366.29 26.48 1366.49 29.04H1354.85C1355.29 26.48 1357.29 24.28 1360.93 24.28ZM1386.82 21.84H1385.3C1382.38 21.84 1380.46 23 1379.46 24.24H1378.58V21.84H1375.3V42H1378.7V31.92C1378.7 27.48 1381.14 25.04 1385.14 25.04H1386.82V21.84Z" fill="#274867"/>
<path d="M1008.32 337.133L1118.32 337.133" stroke="#274867" stroke-width="5.19168"/>
<path d="M1101.06 336.437L1101.06 353.131L1140.82 336.451L1101.06 320L1101.06 336.437Z" fill="#274867"/>
<path d="M1057.5 337.133L947.5 337.133" stroke="#274867" stroke-width="5.19168"/>
<path d="M964.757 336.437L964.757 353.131L925 336.451L964.757 320L964.757 336.437Z" fill="#274867"/>
<path d="M437.32 337.133L547.32 337.133" stroke="#274867" stroke-width="5.19168"/>
<path d="M530.063 336.437L530.063 353.131L569.82 336.451L530.063 320L530.063 336.437Z" fill="#274867"/>
<path d="M486.5 337.133L376.5 337.133" stroke="#274867" stroke-width="5.19168"/>
<path d="M393.757 336.437L393.757 353.131L354 336.451L393.757 320L393.757 336.437Z" fill="#274867"/>
</g>
<defs>
<linearGradient id="paint0_linear_2206_225" x1="125.009" y1="515.606" x2="73.4008" y2="583.618" gradientUnits="userSpaceOnUse">
<stop stop-color="#4F7497"/>
<stop offset="1" stop-color="#153350"/>
</linearGradient>
<clipPath id="clip0_2206_225">
<rect width="1474" height="579" fill="white"/>
</clipPath>
</defs>
</svg>
